<svg xmlns="http://www.w3.org/2000/svg" width="2048" height="843" viewBox="0 0 2048 843" role="img" aria-label="C/Skills. A Creation Rights Division logo">
<defs>
  <filter id="softDepth" x="-5%" y="-5%" width="110%" height="115%">
    <feDropShadow dx="0" dy="2" stdDeviation="2.4" flood-color="#000000" flood-opacity="0.28"/>
  </filter>
</defs>
<rect width="2048" height="843" fill="#171819"/>
<g filter="url(#softDepth)">
<g fill="#FFFFFF" opacity="1">
<path d="M764 -24C1145 -24 1414 208 1456 560H1037C1011 420 915 336 772 336C569 336 460 484 460 744C460 1005 570 1154 772 1154C915 1154 1012 1069 1037 928H1456C1415 1280 1145 1514 764 1514C357 1514 40 1242 40 744C40 250 357 -24 764 -24Z" transform="translate(70.000 425.000) scale(0.229492 -0.229492)"/>
</g>
<path fill="#A9C9A3" d="M559 86 L623 86 L500 437 L435 437 Z"/>
<g fill="#FFFFFF" opacity="1">
<path d="M704 -24C1108 -24 1339 154 1339 466C1339 704 1194 836 852 899L732 921C577 949 510 987 510 1058C510 1133 592 1186 709 1186C833 1186 916 1122 926 1018H1308C1298 1330 1073 1514 701 1514C339 1514 92 1321 92 1038C92 817 248 664 536 609L684 581C852 549 928 507 928 435C928 357 840 304 709 304C558 304 463 375 457 496H64C64 161 291 -24 704 -24Z" transform="translate(630.000 425.000) scale(0.229492 -0.229492)"/>
<path d="M86 0H486V293L544 365L768 0H1222L838 592L1210 1056H758L490 712H486V1490H86Z" transform="translate(933.978 425.000) scale(0.229492 -0.229492)"/>
<path d="M86 0H486V1056H86ZM285 1126C410 1126 498 1206 498 1319C498 1431 410 1510 285 1510C160 1510 72 1431 72 1319C72 1206 160 1126 285 1126Z" transform="translate(1191.827 425.000) scale(0.229492 -0.229492)"/>
<path d="M486 1490H86V0H486Z" transform="translate(1305.097 425.000) scale(0.229492 -0.229492)"/>
<path d="M486 1490H86V0H486Z" transform="translate(1418.366 425.000) scale(0.229492 -0.229492)"/>
<path d="M584 -27C900 -27 1108 129 1108 353C1108 511 1004 602 782 639L556 677C493 688 458 712 458 745C458 784 501 813 578 813C655 813 714 766 716 705H1080C1074 934 881 1077 562 1077C246 1077 60 941 60 723C60 552 174 443 386 409L584 377C664 364 702 341 702 307C702 266 657 239 578 239C492 239 439 282 430 345H36C57 122 270 -27 584 -27Z" transform="translate(1531.636 425.000) scale(0.229492 -0.229492)"/>
<path d="M272 -19C387 -19 480 74 480 189C480 304 387 397 272 397C157 397 64 304 64 189C64 74 157 -19 272 -19Z" transform="translate(1776.175 425.000) scale(0.229492 -0.229492)"/>
</g>
<g fill="#FFFFFF" opacity="1">
<path d="M20 0H208L358 418H980L1126 0H1318L774 1490H570ZM415 578 530 898C568 1003 608 1123 672 1321C736 1123 776 1003 813 898L925 578Z" transform="translate(162.281 710.000) scale(0.078125 -0.078125)"/>
<path d="M779 -24C1091 -24 1339 170 1393 480H1210C1159 264 994 144 779 144C465 144 270 390 270 744C270 1100 465 1346 779 1346C996 1346 1161 1225 1209 1008H1393C1338 1319 1091 1514 779 1514C366 1514 90 1195 90 744C90 296 367 -24 779 -24Z" transform="translate(300.812 710.000) scale(0.078125 -0.078125)"/>
<path d="M126 0H296V650C296 829 397 908 514 908C563 908 604 900 618 896V1066C604 1068 577 1072 546 1072C414 1072 331 999 292 890H288V1056H126Z" transform="translate(413.359 710.000) scale(0.078125 -0.078125)"/>
<path d="M562 -24C792 -24 972 114 1012 316H842C810 206 712 130 562 130C362 130 248 272 240 479H1030V526C1030 854 844 1080 550 1080C270 1080 72 847 72 526C72 208 252 -24 562 -24ZM242 625C260 811 377 928 550 928C724 928 842 811 860 625Z" transform="translate(461.922 710.000) scale(0.078125 -0.078125)"/>
<path d="M448 -16C640 -16 723 74 762 150H766V0H934V728C934 937 778 1076 532 1076C282 1076 111 933 102 740H275C283 845 385 926 532 926C680 926 766 843 766 728V718C766 637 701 645 500 618C288 590 80 546 80 304C80 93 238 -16 448 -16ZM472 136C337 136 254 195 254 294C254 413 370 455 492 472C613 489 740 508 766 532V400C766 262 680 136 472 136Z" transform="translate(544.703 710.000) scale(0.078125 -0.078125)"/>
<path d="M587 1056H373V1344H203V1056H15V910H203V238C203 79 292 0 473 0H587V146H489C402 146 373 174 373 256V910H587Z" transform="translate(624.516 710.000) scale(0.078125 -0.078125)"/>
<path d="M126 0H296V1056H126ZM211 1262C275 1262 327 1314 327 1378C327 1442 275 1494 211 1494C147 1494 95 1442 95 1378C95 1314 147 1262 211 1262Z" transform="translate(671.281 710.000) scale(0.078125 -0.078125)"/>
<path d="M562 -24C855 -24 1052 204 1052 526C1052 850 855 1080 562 1080C269 1080 72 850 72 526C72 204 269 -24 562 -24ZM562 130C362 130 244 286 244 526C244 768 363 926 562 926C761 926 880 767 880 526C880 287 762 130 562 130Z" transform="translate(701.250 710.000) scale(0.078125 -0.078125)"/>
<path d="M296 618C296 831 420 920 574 920C732 920 824 827 824 644V0H994V656C994 937 819 1076 606 1076C472 1076 365 1021 292 901V1056H126V0H296Z" transform="translate(786.062 710.000) scale(0.078125 -0.078125)"/>
<path d="M148 0H328V585H687C692 585 696 585 701 585L1015 0H1225L890 614C1085 674 1207 825 1207 1038C1207 1316 1012 1490 701 1490H148ZM328 745V1330H695C902 1330 1029 1219 1029 1038C1029 857 903 745 697 745Z" transform="translate(907.562 710.000) scale(0.078125 -0.078125)"/>
<path d="M126 0H296V1056H126ZM211 1262C275 1262 327 1314 327 1378C327 1442 275 1494 211 1494C147 1494 95 1442 95 1378C95 1314 147 1262 211 1262Z" transform="translate(1005.734 710.000) scale(0.078125 -0.078125)"/>
<path d="M568 -432C814 -432 1032 -312 1032 0V1056H866V891H865C792 1021 667 1076 530 1076C255 1076 72 854 72 528C72 203 255 -20 530 -20C669 -20 785 37 863 160H864V0C864 -180 752 -282 568 -282C432 -282 328 -226 298 -112H124C150 -320 330 -432 568 -432ZM556 133C373 133 244 269 244 528C244 787 373 924 556 924C752 924 876 767 876 528C876 289 752 133 556 133Z" transform="translate(1035.703 710.000) scale(0.078125 -0.078125)"/>
<path d="M296 618C296 831 420 920 574 920C732 920 824 827 824 644V0H994V656C994 937 819 1076 606 1076C475 1076 369 1023 296 908V1490H126V0H296Z" transform="translate(1123.172 710.000) scale(0.078125 -0.078125)"/>
<path d="M587 1056H373V1344H203V1056H15V910H203V238C203 79 292 0 473 0H587V146H489C402 146 373 174 373 256V910H587Z" transform="translate(1207.672 710.000) scale(0.078125 -0.078125)"/>
<path d="M494 -24C724 -24 898 92 898 288C898 440 806 533 604 581L434 621C332 645 270 692 270 772C270 862 353 934 483 934C619 934 706 852 708 740H874C868 950 703 1080 483 1080C257 1080 100 952 100 772C100 618 202 518 398 472L568 432C662 410 727 364 727 284C727 190 636 122 490 122C342 122 256 190 244 316H76C90 86 268 -24 494 -24Z" transform="translate(1254.438 710.000) scale(0.078125 -0.078125)"/>
<path d="M608 0C1062 0 1322 282 1322 748C1322 1210 1062 1490 628 1490H148V0ZM328 160V1330H616C966 1330 1142 1108 1142 748C1142 384 966 160 596 160Z" transform="translate(1364.375 710.000) scale(0.078125 -0.078125)"/>
<path d="M126 0H296V1056H126ZM211 1262C275 1262 327 1314 327 1378C327 1442 275 1494 211 1494C147 1494 95 1442 95 1378C95 1314 147 1262 211 1262Z" transform="translate(1471.688 710.000) scale(0.078125 -0.078125)"/>
<path d="M438 0H610L1018 1056H837L612 448C582 367 555 286 527 205C500 286 472 367 442 448L214 1056H30Z" transform="translate(1501.656 710.000) scale(0.078125 -0.078125)"/>
<path d="M126 0H296V1056H126ZM211 1262C275 1262 327 1314 327 1378C327 1442 275 1494 211 1494C147 1494 95 1442 95 1378C95 1314 147 1262 211 1262Z" transform="translate(1580.531 710.000) scale(0.078125 -0.078125)"/>
<path d="M494 -24C724 -24 898 92 898 288C898 440 806 533 604 581L434 621C332 645 270 692 270 772C270 862 353 934 483 934C619 934 706 852 708 740H874C868 950 703 1080 483 1080C257 1080 100 952 100 772C100 618 202 518 398 472L568 432C662 410 727 364 727 284C727 190 636 122 490 122C342 122 256 190 244 316H76C90 86 268 -24 494 -24Z" transform="translate(1610.500 710.000) scale(0.078125 -0.078125)"/>
<path d="M126 0H296V1056H126ZM211 1262C275 1262 327 1314 327 1378C327 1442 275 1494 211 1494C147 1494 95 1442 95 1378C95 1314 147 1262 211 1262Z" transform="translate(1683.438 710.000) scale(0.078125 -0.078125)"/>
<path d="M562 -24C855 -24 1052 204 1052 526C1052 850 855 1080 562 1080C269 1080 72 850 72 526C72 204 269 -24 562 -24ZM562 130C362 130 244 286 244 526C244 768 363 926 562 926C761 926 880 767 880 526C880 287 762 130 562 130Z" transform="translate(1713.406 710.000) scale(0.078125 -0.078125)"/>
<path d="M296 618C296 831 420 920 574 920C732 920 824 827 824 644V0H994V656C994 937 819 1076 606 1076C472 1076 365 1021 292 901V1056H126V0H296Z" transform="translate(1798.219 710.000) scale(0.078125 -0.078125)"/>
</g>
</g>
</svg>